<?xml version="1.0" encoding="UTF-8"?>
<svg viewBox="0 0 96 144" version="1.1" xmlns="http://www.w3.org/2000/svg">
  <g fill="#000000">
    <polygon points="57.6 0 38.4 11.1 38.4 11.1 76.8 33.2 96 22.1 96 22.1 57.6 0 57.6 0"/>
    <polygon points="19.2 66.5 0 77.6 0 77.6 19.2 88.7 38.4 77.6 38.4 77.6 19.2 66.5 19.2 66.5"/>
    <polygon points="57.6 88.7 19.2 110.9 19.2 110.9 38.4 121.9 76.8 99.8 76.8 99.8 57.6 88.7 57.6 88.7"/>
    <polygon points="38.4 11.1 38.4 33.3 57.6 44.3 57.6 88.7 76.8 99.8 76.8 33.2 38.4 11.1 38.4 11.1"/>
    <polygon points="19.2 110.9 19.2 110.8 19.2 88.7 0 77.6 0 121.9 38.4 144.1 38.4 121.9 19.2 110.9 19.2 110.9"/>
  </g>
</svg>
